<svg width="101" height="101" viewBox="0 0 101 101" fill="none" xmlns="http://www.w3.org/2000/svg">
<path d="M30.5 45.5412C30.5 42.7797 32.7386 40.5412 35.5 40.5412H65.5C68.2614 40.5412 70.5 42.7797 70.5 45.5412C70.5 48.3026 68.2614 50.5412 65.5 50.5412H35.5C32.7386 50.5412 30.5 48.3026 30.5 45.5412Z" fill="#F7FAFF"/>
<path d="M35.5 60.5412C32.7386 60.5412 30.5 62.7798 30.5 65.5412C30.5 68.3026 32.7386 70.5412 35.5 70.5412H50.5C53.2614 70.5412 55.5 68.3026 55.5 65.5412C55.5 62.7798 53.2614 60.5412 50.5 60.5412H35.5Z" fill="#F7FAFF"/>
<path fill-rule="evenodd" clip-rule="evenodd" d="M0.5 50.5412C0.5 22.927 22.8858 0.541199 50.5 0.541199C78.1142 0.541199 100.5 22.927 100.5 50.5412C100.5 78.1554 78.1142 100.541 50.5 100.541H10.5C4.97715 100.541 0.5 96.064 0.5 90.5412V50.5412ZM50.5 10.5412C28.4086 10.5412 10.5 28.4498 10.5 50.5412V90.5412H50.5C72.5914 90.5412 90.5 72.6325 90.5 50.5412C90.5 28.4498 72.5914 10.5412 50.5 10.5412Z" fill="#F7FAFF"/>
</svg>
