<svg width="188" height="188" viewBox="0 0 188 188" fill="none" xmlns="http://www.w3.org/2000/svg">
<path fill-rule="evenodd" clip-rule="evenodd" d="M0 94.1905C0 42.3809 42 0.380951 93.8095 0.380951C145.619 0.380951 187.619 42.3809 187.619 94.1905C187.619 146 145.619 188 93.8095 188H18.7619C8.39999 188 0 179.6 0 169.238V94.1905ZM56.2857 84.8095C56.2857 79.6286 60.4857 75.4286 65.6667 75.4286H121.952C127.133 75.4286 131.333 79.6286 131.333 84.8095C131.333 89.9905 127.133 94.1905 121.952 94.1905H65.6667C60.4857 94.1905 56.2857 89.9905 56.2857 84.8095ZM65.6667 112.952C60.4857 112.952 56.2857 117.152 56.2857 122.333C56.2857 127.514 60.4857 131.714 65.6667 131.714H93.8095C98.9905 131.714 103.19 127.514 103.19 122.333C103.19 117.152 98.9905 112.952 93.8095 112.952H65.6667Z" fill="#09244B"/>
<path fill-rule="evenodd" clip-rule="evenodd" d="M0 94.1905C0 42.3809 42 0.380951 93.8095 0.380951C145.619 0.380951 187.619 42.3809 187.619 94.1905C187.619 146 145.619 188 93.8095 188H18.7619C8.39999 188 0 179.6 0 169.238V94.1905ZM56.2857 84.8095C56.2857 79.6286 60.4857 75.4286 65.6667 75.4286H121.952C127.133 75.4286 131.333 79.6286 131.333 84.8095C131.333 89.9905 127.133 94.1905 121.952 94.1905H65.6667C60.4857 94.1905 56.2857 89.9905 56.2857 84.8095ZM65.6667 112.952C60.4857 112.952 56.2857 117.152 56.2857 122.333C56.2857 127.514 60.4857 131.714 65.6667 131.714H93.8095C98.9905 131.714 103.19 127.514 103.19 122.333C103.19 117.152 98.9905 112.952 93.8095 112.952H65.6667Z" fill="#F7FAFF"/>
</svg>
