<svg width="101" height="101" viewBox="0 0 101 101" fill="none" xmlns="http://www.w3.org/2000/svg">
<path d="M70.5 45.0824C70.5 42.321 68.2614 40.0824 65.5 40.0824H35.5C32.7386 40.0824 30.5 42.321 30.5 45.0824C30.5 47.8438 32.7386 50.0824 35.5 50.0824H65.5C68.2614 50.0824 70.5 47.8438 70.5 45.0824Z" fill="#F8FBFF"/>
<path d="M65.5 60.0824C68.2614 60.0824 70.5 62.321 70.5 65.0824C70.5 67.8438 68.2614 70.0824 65.5 70.0824H50.5C47.7386 70.0824 45.5 67.8438 45.5 65.0824C45.5 62.321 47.7386 60.0824 50.5 60.0824H65.5Z" fill="#F8FBFF"/>
<path fill-rule="evenodd" clip-rule="evenodd" d="M100.5 50.0824C100.5 22.4682 78.1142 0.0823975 50.5 0.0823975C22.8858 0.0823975 0.5 22.4682 0.5 50.0824C0.5 77.6966 22.8858 100.082 50.5 100.082H90.5C96.0228 100.082 100.5 95.6052 100.5 90.0824V50.0824ZM50.5 10.0824C72.5914 10.0824 90.5 27.991 90.5 50.0824V90.0824H50.5C28.4086 90.0824 10.5 72.1738 10.5 50.0824C10.5 27.991 28.4086 10.0824 50.5 10.0824Z" fill="#F8FBFF"/>
</svg>
