<svg width="101" height="101" viewBox="0 0 101 101" fill="none" xmlns="http://www.w3.org/2000/svg">
<path d="M75.625 30.7428C75.625 35.3452 72.2671 39.0761 68.125 39.0761C63.9829 39.0761 60.625 35.3452 60.625 30.7428C60.625 26.1404 63.9829 22.4095 68.125 22.4095C72.2671 22.4095 75.625 26.1404 75.625 30.7428Z" fill="#F7FAFF"/>
<path fill-rule="evenodd" clip-rule="evenodd" d="M0.625 11.2984C0.625 5.16187 5.10215 0.187256 10.625 0.187256H90.625C96.1478 0.187256 100.625 5.16187 100.625 11.2984V89.0761C100.625 95.2126 96.1479 100.187 90.625 100.187H10.625C5.10216 100.187 0.625 95.2126 0.625 89.0761V11.2984ZM90.625 11.2984H10.625V67.4114L35.5982 39.6634C38.0389 36.9514 41.9962 36.9514 44.437 39.6634L64.7663 62.2515L70.9535 55.3769C73.3943 52.6649 77.3516 52.6649 79.7923 55.3769L90.625 67.4132V11.2984ZM90.625 82.8247C90.2271 82.5792 89.8529 82.2688 89.5151 81.8934L75.3729 66.1799L69.1857 73.0546C66.745 75.7665 62.7877 75.7665 60.3469 73.0546L40.0176 50.4664L11.7333 81.8934C11.3959 82.2683 11.0223 82.5784 10.625 82.8237V89.0761H90.625V82.8247Z" fill="#F7FAFF"/>
</svg>
