<svg width="100" height="101" viewBox="0 0 100 101" fill="none" xmlns="http://www.w3.org/2000/svg">
<path d="M75 31.2016C75 35.8039 71.6421 39.5349 67.5 39.5349C63.3579 39.5349 60 35.8039 60 31.2016C60 26.5992 63.3579 22.8682 67.5 22.8682C71.6421 22.8682 75 26.5992 75 31.2016Z" fill="#F7FAFF"/>
<path fill-rule="evenodd" clip-rule="evenodd" d="M0 11.7571C0 5.62061 4.47715 0.645996 10 0.645996H90C95.5228 0.645996 100 5.62061 100 11.7571V89.5349C100 95.6714 95.5229 100.646 90 100.646H10C4.47716 100.646 0 95.6714 0 89.5349V11.7571ZM90 11.7571H10V67.8711L34.974 40.1222C37.4148 37.4103 41.3721 37.4103 43.8128 40.1222L64.1422 62.7104L70.3293 55.8357C72.7701 53.1237 76.7274 53.1237 79.1682 55.8357L90 67.8711V11.7571Z" fill="#F7FAFF"/>
</svg>
