<svg width="116" height="116" viewBox="0 0 116 116" fill="none" xmlns="http://www.w3.org/2000/svg">
<path fill-rule="evenodd" clip-rule="evenodd" d="M0.5 13.5C0.5 6.43534 6.22702 0.708313 13.2917 0.708313H102.833C109.898 0.708313 115.625 6.43534 115.625 13.5V103.042C115.625 110.106 109.898 115.833 102.833 115.833H13.2917C6.22702 115.833 0.5 110.106 0.5 103.042V13.5ZM39.1972 80.8843C36.6994 83.382 32.6498 83.382 30.1521 80.8843C27.6544 78.3866 27.6544 74.3369 30.1521 71.8392L43.7197 58.2716L30.1521 44.704C27.6544 42.2063 27.6544 38.1566 30.1521 35.6589C32.6498 33.1612 36.6994 33.1612 39.1972 35.6589L57.2873 53.7491C59.785 56.2468 59.785 60.2964 57.2873 62.7941L39.1972 80.8843ZM70.8549 71.0633C67.3226 71.0633 64.4591 73.9268 64.4591 77.4591C64.4591 80.9914 67.3226 83.8549 70.8549 83.8549H83.6466C87.1789 83.8549 90.0424 80.9914 90.0424 77.4591C90.0424 73.9268 87.1789 71.0633 83.6466 71.0633H70.8549Z" fill="#F7FAFF"/>
</svg>
