<svg width="116" height="116" viewBox="0 0 116 116" fill="none" xmlns="http://www.w3.org/2000/svg">
<path d="M38.7664 80.8843C36.2687 83.382 32.2191 83.382 29.7214 80.8843C27.2236 78.3866 27.2236 74.3369 29.7214 71.8392L43.289 58.2716L29.7214 44.704C27.2236 42.2063 27.2236 38.1566 29.7214 35.6589C32.2191 33.1612 36.2687 33.1612 38.7664 35.6589L56.8566 53.7491C59.3543 56.2468 59.3543 60.2964 56.8566 62.7941L38.7664 80.8843Z" fill="#F7FAFF"/>
<path d="M70.4242 71.0633C66.8919 71.0633 64.0284 73.9268 64.0284 77.4591C64.0284 80.9914 66.8919 83.8549 70.4242 83.8549H83.2159C86.7482 83.8549 89.6117 80.9914 89.6117 77.4591C89.6117 73.9268 86.7482 71.0633 83.2159 71.0633H70.4242Z" fill="#F7FAFF"/>
<path fill-rule="evenodd" clip-rule="evenodd" d="M0.0692749 13.5C0.0692749 6.43534 5.7963 0.708313 12.8609 0.708313H102.403C109.467 0.708313 115.194 6.43534 115.194 13.5V103.042C115.194 110.106 109.467 115.833 102.403 115.833H12.8609C5.7963 115.833 0.0692749 110.106 0.0692749 103.042V13.5ZM102.403 13.5H12.8609V103.042H102.403V13.5Z" fill="#F7FAFF"/>
</svg>
