<svg width="154" height="161" viewBox="0 0 154 161" fill="none" xmlns="http://www.w3.org/2000/svg">
<path d="M87.2667 3.83885C81.1827 -0.724114 72.8173 -0.724116 66.7333 3.83885L6.84444 48.7555C2.53577 51.987 0 57.0586 0 62.4444V143.722C0 153.172 7.66091 160.833 17.1111 160.833H50.4778C55.6754 160.833 59.8889 156.62 59.8889 151.422V109.5C59.8889 100.05 67.5498 92.3889 77 92.3889C86.4502 92.3889 94.1111 100.05 94.1111 109.5V151.422C94.1111 156.62 98.3246 160.833 103.522 160.833H136.889C146.339 160.833 154 153.172 154 143.722V62.4444C154 57.0586 151.464 51.987 147.156 48.7555L87.2667 3.83885Z" fill="#F7FAFF"/>
</svg>
