<svg width="100" height="101" viewBox="0 0 100 101" fill="none" xmlns="http://www.w3.org/2000/svg">
<path d="M30 45.5412C30 42.7797 32.2386 40.5412 35 40.5412H65C67.7614 40.5412 70 42.7797 70 45.5412C70 48.3026 67.7614 50.5412 65 50.5412H35C32.2386 50.5412 30 48.3026 30 45.5412Z" fill="#F7FAFF"/>
<path d="M35 60.5412C32.2386 60.5412 30 62.7798 30 65.5412C30 68.3026 32.2386 70.5412 35 70.5412H50C52.7614 70.5412 55 68.3026 55 65.5412C55 62.7798 52.7614 60.5412 50 60.5412H35Z" fill="#F7FAFF"/>
<path fill-rule="evenodd" clip-rule="evenodd" d="M0 50.5412C0 22.927 22.3858 0.541199 50 0.541199C77.6142 0.541199 100 22.927 100 50.5412C100 78.1554 77.6142 100.541 50 100.541H10C4.47715 100.541 0 96.064 0 90.5412V50.5412ZM50 10.5412C27.9086 10.5412 10 28.4498 10 50.5412V90.5412H50C72.0914 90.5412 90 72.6325 90 50.5412C90 28.4498 72.0914 10.5412 50 10.5412Z" fill="#F7FAFF"/>
</svg>
