<svg width="178" height="179" viewBox="0 0 178 179" fill="none" xmlns="http://www.w3.org/2000/svg">
<path fill-rule="evenodd" clip-rule="evenodd" d="M77.3282 4.58681C84.3467 -0.466521 93.9971 -0.466518 101.016 4.58681L170.104 54.3306C175.075 57.9094 178 63.5259 178 69.4906V159.503C178 169.969 169.162 178.453 158.26 178.453H109.898C103.902 178.453 99.0417 173.787 99.0417 168.031V112.128C99.0417 106.895 94.6228 102.653 89.1719 102.653C83.721 102.653 79.3021 106.895 79.3021 112.128V168.031C79.3021 173.787 74.4414 178.453 68.4453 178.453H20.0834C9.18148 178.453 0.343765 169.969 0.343765 159.503V69.4906C0.343765 63.5259 3.26906 57.9094 8.2396 54.3306L77.3282 4.58681ZM89.1719 19.7468L20.0834 69.4906V159.503H59.5625V112.128C59.5625 96.4294 72.8191 83.7031 89.1719 83.7031C105.525 83.7031 118.781 96.4294 118.781 112.128V159.503H158.26V69.4906L89.1719 19.7468Z" fill="#F7FAFF"/>
</svg>
