<svg id="visual" viewBox="0 0 2560 4400" width="2560" height="4400" xmlns="http://www.w3.org/2000/svg" xmlns:xlink="http://www.w3.org/1999/xlink" version="1.1"><path d="M1586 4400L1641.5 4277.8C1697 4155.7 1808 3911.3 1786.7 3666.8C1765.3 3422.3 1611.7 3177.7 1590.3 2933.2C1569 2688.7 1680 2444.3 1778.2 2200C1876.3 1955.7 1961.7 1711.3 1991.5 1466.8C2021.3 1222.3 1995.7 977.7 1918.8 733.2C1842 488.7 1714 244.3 1650 122.2L1586 0L2560 0L2560 122.2C2560 244.3 2560 488.7 2560 733.2C2560 977.7 2560 1222.3 2560 1466.8C2560 1711.3 2560 1955.7 2560 2200C2560 2444.3 2560 2688.7 2560 2933.2C2560 3177.7 2560 3422.3 2560 3666.8C2560 3911.3 2560 4155.7 2560 4277.8L2560 4400Z" fill="#0b152c"></path><path d="M1253 4400L1291.5 4277.8C1330 4155.7 1407 3911.3 1390 3666.8C1373 3422.3 1262 3177.7 1240.7 2933.2C1219.3 2688.7 1287.7 2444.3 1360.2 2200C1432.7 1955.7 1509.3 1711.3 1573.3 1466.8C1637.3 1222.3 1688.7 977.7 1611.8 733.2C1535 488.7 1330 244.3 1227.5 122.2L1125 0L1587 0L1651 122.2C1715 244.3 1843 488.7 1919.8 733.2C1996.7 977.7 2022.3 1222.3 1992.5 1466.8C1962.7 1711.3 1877.3 1955.7 1779.2 2200C1681 2444.3 1570 2688.7 1591.3 2933.2C1612.7 3177.7 1766.3 3422.3 1787.7 3666.8C1809 3911.3 1698 4155.7 1642.5 4277.8L1587 4400Z" fill="#0c1832"></path><path d="M767 4400L750 4277.8C733 4155.7 699 3911.3 664.8 3666.8C630.7 3422.3 596.3 3177.7 626.2 2933.2C656 2688.7 750 2444.3 779.8 2200C809.7 1955.7 775.3 1711.3 788.2 1466.8C801 1222.3 861 977.7 844 733.2C827 488.7 733 244.3 686 122.2L639 0L1126 0L1228.5 122.2C1331 244.3 1536 488.7 1612.8 733.2C1689.7 977.7 1638.3 1222.3 1574.3 1466.8C1510.3 1711.3 1433.7 1955.7 1361.2 2200C1288.7 2444.3 1220.3 2688.7 1241.7 2933.2C1263 3177.7 1374 3422.3 1391 3666.8C1408 3911.3 1331 4155.7 1292.5 4277.8L1254 4400Z" fill="#0c1b38"></path><path d="M229 4400L250.3 4277.8C271.7 4155.7 314.3 3911.3 314.3 3666.8C314.3 3422.3 271.7 3177.7 271.7 2933.2C271.7 2688.7 314.3 2444.3 323 2200C331.7 1955.7 306.3 1711.3 310.7 1466.8C315 1222.3 349 977.7 349 733.2C349 488.7 315 244.3 298 122.2L281 0L640 0L687 122.2C734 244.3 828 488.7 845 733.2C862 977.7 802 1222.3 789.2 1466.8C776.3 1711.3 810.7 1955.7 780.8 2200C751 2444.3 657 2688.7 627.2 2933.2C597.3 3177.7 631.7 3422.3 665.8 3666.8C700 3911.3 734 4155.7 751 4277.8L768 4400Z" fill="#0d1e3e"></path><path d="M0 4400L0 4277.8C0 4155.7 0 3911.3 0 3666.8C0 3422.3 0 3177.7 0 2933.2C0 2688.7 0 2444.3 0 2200C0 1955.7 0 1711.3 0 1466.8C0 1222.3 0 977.7 0 733.2C0 488.7 0 244.3 0 122.2L0 0L282 0L299 122.2C316 244.3 350 488.7 350 733.2C350 977.7 316 1222.3 311.7 1466.8C307.3 1711.3 332.7 1955.7 324 2200C315.3 2444.3 272.7 2688.7 272.7 2933.2C272.7 3177.7 315.3 3422.3 315.3 3666.8C315.3 3911.3 272.7 4155.7 251.3 4277.8L230 4400Z" fill="#0e2044"></path></svg>