<svg id="visual" viewBox="0 0 2141 4096" width="2141" height="4096" xmlns="http://www.w3.org/2000/svg" xmlns:xlink="http://www.w3.org/1999/xlink" version="1.1"><path d="M0 1271L89.2 1230C178.3 1189 356.7 1107 535.2 1059.2C713.7 1011.3 892.3 997.7 1070.8 1031.8C1249.3 1066 1427.7 1148 1606 1175.3C1784.3 1202.7 1962.7 1175.3 2051.8 1161.7L2141 1148L2141 0L2051.8 0C1962.7 0 1784.3 0 1606 0C1427.7 0 1249.3 0 1070.8 0C892.3 0 713.7 0 535.2 0C356.7 0 178.3 0 89.2 0L0 0Z" fill="#0b152c"></path><path d="M0 1885L89.2 1857.7C178.3 1830.3 356.7 1775.7 535.2 1762C713.7 1748.3 892.3 1775.7 1070.8 1789.3C1249.3 1803 1427.7 1803 1606 1789.3C1784.3 1775.7 1962.7 1748.3 2051.8 1734.7L2141 1721L2141 1146L2051.8 1159.7C1962.7 1173.3 1784.3 1200.7 1606 1173.3C1427.7 1146 1249.3 1064 1070.8 1029.8C892.3 995.7 713.7 1009.3 535.2 1057.2C356.7 1105 178.3 1187 89.2 1228L0 1269Z" fill="#0c1832"></path><path d="M0 2459L89.2 2424.8C178.3 2390.7 356.7 2322.3 535.2 2295C713.7 2267.7 892.3 2281.3 1070.8 2295C1249.3 2308.7 1427.7 2322.3 1606 2315.5C1784.3 2308.7 1962.7 2281.3 2051.8 2267.7L2141 2254L2141 1719L2051.8 1732.7C1962.7 1746.3 1784.3 1773.7 1606 1787.3C1427.7 1801 1249.3 1801 1070.8 1787.3C892.3 1773.7 713.7 1746.3 535.2 1760C356.7 1773.7 178.3 1828.3 89.2 1855.7L0 1883Z" fill="#0c1b38"></path><path d="M0 2991L89.2 2936.3C178.3 2881.7 356.7 2772.3 535.2 2751.8C713.7 2731.3 892.3 2799.7 1070.8 2833.8C1249.3 2868 1427.7 2868 1606 2861.2C1784.3 2854.3 1962.7 2840.7 2051.8 2833.8L2141 2827L2141 2252L2051.8 2265.7C1962.7 2279.3 1784.3 2306.7 1606 2313.5C1427.7 2320.3 1249.3 2306.7 1070.8 2293C892.3 2279.3 713.7 2265.7 535.2 2293C356.7 2320.3 178.3 2388.7 89.2 2422.8L0 2457Z" fill="#0d1e3e"></path><path d="M0 4097L89.2 4097C178.3 4097 356.7 4097 535.2 4097C713.7 4097 892.3 4097 1070.8 4097C1249.3 4097 1427.7 4097 1606 4097C1784.3 4097 1962.7 4097 2051.8 4097L2141 4097L2141 2825L2051.8 2831.8C1962.7 2838.7 1784.3 2852.3 1606 2859.2C1427.7 2866 1249.3 2866 1070.8 2831.8C892.3 2797.7 713.7 2729.3 535.2 2749.8C356.7 2770.3 178.3 2879.7 89.2 2934.3L0 2989Z" fill="#0e2044"></path></svg>