<svg width="24" height="24" viewBox="0 0 24 24" fill="none" xmlns="http://www.w3.org/2000/svg">
<path d="M4.96545 13.1C11.5861 17.5 12.414 17.5 19.0346 13.1C25.6551 8.69999 25.6551 8.69998 19.0346 4.3C12.414 -0.0999923 11.5861 -0.100005 4.96545 4.3C1.65516 6.49999 0 7.6 0 8.7V18.6C0 19.2075 0.429806 19.7 0.96 19.7C1.49019 19.7 1.92 19.2075 1.92 18.6L1.92 11.4208C1.92 11.2465 2.08871 11.1409 2.21757 11.2336C2.9514 11.7615 3.86736 12.3702 4.96545 13.1Z" fill="url(#paint0_linear_620_1702)"/>
<path d="M4.96545 14.2001C11.5861 18.6001 12.414 18.6001 19.0346 14.2001L19.4122 13.949C19.7119 13.7497 20.0898 13.9683 20.1118 14.3646C20.1451 14.9634 20.16 15.6387 20.16 16.4C20.16 21.9 18.24 23 11.967 23C5.27442 23 3.84 21.9 3.84 16.4C3.84 15.6391 3.85424 14.964 3.88634 14.3654C3.90763 13.9683 4.28614 13.7484 4.58647 13.9481L4.96545 14.2001Z" fill="url(#paint1_linear_620_1702)"/>
<defs>
<linearGradient id="paint0_linear_620_1702" x1="-2.125" y1="0.125" x2="20.625" y2="24.25" gradientUnits="userSpaceOnUse">
<stop stop-color="#F81E2B"/>
<stop offset="1" stop-color="#D84CCA"/>
</linearGradient>
<linearGradient id="paint1_linear_620_1702" x1="-2.125" y1="0.125" x2="20.625" y2="24.25" gradientUnits="userSpaceOnUse">
<stop stop-color="#F81E2B"/>
<stop offset="1" stop-color="#D84CCA"/>
</linearGradient>
</defs>
</svg>
