<svg width="20" height="20" viewBox="0 0 20 20" fill="none" xmlns="http://www.w3.org/2000/svg">
<path fill-rule="evenodd" clip-rule="evenodd" d="M0 9.50197V15.697L3.62346 15.6844C7.22297 15.672 7.2491 15.6713 7.57899 15.585C9.54323 15.071 10.4527 13.8377 10.3791 11.7876C10.3203 10.1457 9.59601 9.12657 8.39119 8.99027L8.15003 8.96296L8.35454 8.91061C9.06349 8.72919 9.59535 8.22745 9.83299 7.51588C9.9316 7.22065 9.93929 7.15127 9.93757 6.57214C9.93605 6.0556 9.92097 5.89281 9.85061 5.63454C9.5414 4.49929 8.78412 3.76339 7.58727 3.43515L7.20785 3.33107L3.60392 3.31904L0 3.30701V9.50197ZM12.9791 4.80436L12.9898 5.5564L15.5389 5.56644L18.088 5.57648V4.8144V4.05233H15.5282H12.9685L12.9791 4.80436ZM6.78839 5.60629C7.20621 5.82944 7.40987 6.46319 7.30595 7.21675C7.25137 7.61246 7.14987 7.86616 6.98048 8.03036C6.73526 8.268 6.7015 8.27156 4.68311 8.27156H2.85189V6.88327V5.49495L4.73687 5.50616C6.61317 5.5173 6.62263 5.51773 6.78839 5.60629ZM14.7087 6.53132C13.695 6.69067 12.9023 7.08751 12.2584 7.75806C11.6307 8.41177 11.2423 9.17377 11.0111 10.2054C10.8948 10.7245 10.8685 11.7306 10.9574 12.2626C11.3748 14.7614 13.1505 16.0634 15.9931 15.955C17.6736 15.8909 18.8766 15.327 19.4851 14.318C19.7088 13.947 19.8851 13.3126 19.8851 12.878V12.6861H18.7965H17.7079L17.6829 12.8685C17.6163 13.3546 17.1591 13.7623 16.5015 13.9221C16.1589 14.0054 15.3773 14.0156 15.0798 13.9408C14.7156 13.8492 14.3894 13.6793 14.1585 13.4609C13.7909 13.1132 13.6086 12.7082 13.568 12.1489L13.5446 11.8266H16.7515H19.9584L19.986 11.6428C20.0252 11.3816 19.9772 10.4241 19.9046 10.0193C19.8092 9.48712 19.6646 9.02961 19.4573 8.60362C18.8735 7.40403 17.8842 6.71317 16.468 6.5162C16.0727 6.46123 15.1016 6.46959 14.7087 6.53132ZM16.0956 8.31265C16.6424 8.39985 17.1034 8.72922 17.3431 9.20389C17.4705 9.45646 17.5786 9.84701 17.5795 10.0589L17.5801 10.1858H15.5486C14.4313 10.1858 13.5172 10.1711 13.5172 10.1532C13.5172 10.0686 13.6934 9.59479 13.8029 9.38496C13.9656 9.07336 14.3735 8.66527 14.674 8.51358C15.0922 8.3025 15.5904 8.2321 16.0956 8.31265ZM6.76014 10.2485C7.19933 10.3789 7.50534 10.695 7.66396 11.182C7.73705 11.4065 7.75233 11.5361 7.7492 11.9048C7.74361 12.5695 7.57434 12.9809 7.20062 13.2381C6.835 13.4896 6.88715 13.484 4.77593 13.4979L2.85189 13.5106V11.8482V10.1858H4.70046C6.28349 10.1858 6.57938 10.1949 6.76014 10.2485Z" fill="white"/>
</svg>
