<svg width="490" height="490" viewBox="0 0 490 490" fill="none" xmlns="http://www.w3.org/2000/svg">
<path d="M70 87.5C70 77.8359 77.8359 70 87.5 70H122.5C132.164 70 140 77.8359 140 87.5C140 97.1641 132.164 105 122.5 105H87.5C77.8359 105 70 97.1641 70 87.5Z" fill="black"/>
<path d="M127.62 285.12C124.339 288.401 122.495 292.854 122.495 297.495C122.495 302.136 124.339 306.585 127.62 309.87L162.62 344.87C169.456 351.702 180.534 351.702 187.37 344.87C194.202 338.034 194.202 326.956 187.37 320.12L164.745 297.495L187.37 274.87C194.202 268.034 194.202 256.956 187.37 250.12C180.534 243.284 169.456 243.284 162.62 250.12L127.62 285.12Z" fill="black"/>
<path d="M367.5 297.5C367.5 292.859 365.656 288.406 362.375 285.125L327.375 250.125C320.539 243.289 309.461 243.289 302.625 250.125C295.793 256.961 295.793 268.039 302.625 274.875L325.25 297.5L302.625 320.125C295.793 326.961 295.793 338.039 302.625 344.875C309.461 351.707 320.539 351.707 327.375 344.875L362.375 309.875C365.656 306.59 367.5 302.141 367.5 297.5Z" fill="black"/>
<path d="M278.15 270.32C282.47 261.675 278.97 251.164 270.322 246.843C261.677 242.523 251.17 246.023 246.845 254.671L211.845 324.671C207.525 333.312 211.025 343.823 219.673 348.148C228.318 352.468 238.825 348.968 243.15 340.32L278.15 270.32Z" fill="black"/>
<path fill-rule="evenodd" clip-rule="evenodd" d="M52.5 0C23.504 0 0 23.504 0 52.5V437.5C0 466.496 23.504 490 52.5 490H437.5C466.496 490 490 466.496 490 437.5V52.5C490 23.504 466.496 0 437.5 0H52.5ZM455 105V52.5C455 42.8359 447.164 35 437.5 35H52.5C42.8359 35 35 42.8359 35 52.5V140H142.61L181.567 108.836C184.672 106.352 188.528 105 192.501 105L455 105ZM35 175H148.75C152.723 175 156.578 173.648 159.684 171.164L198.641 140H455.001V437.5C455.001 447.164 447.165 455 437.501 455H52.501C42.8369 455 35.001 447.164 35.001 437.5L35 175Z" fill="black"/>
</svg>
