<svg width="22" height="22" viewBox="0 0 22 22" fill="none" xmlns="http://www.w3.org/2000/svg">
<mask id="mask0_304_9" style="mask-type:alpha" maskUnits="userSpaceOnUse" x="1" y="1" width="20" height="20">
<path d="M1.00502 3.32786C0.945594 2.9164 1.42769 2.77632 1.72166 3.07029L5.77499 7.12364C5.93734 7.28598 6.01851 7.36716 6.08195 7.47305C6.14538 7.57893 6.30447 8.10419 6.62265 9.15471C6.7163 9.46392 6.88534 9.75518 7.12976 9.99961C7.92226 10.7921 9.20715 10.7921 9.99964 9.99961C10.7921 9.20711 10.7921 7.92221 9.99964 7.12971C9.75525 6.88532 9.46403 6.71629 9.15486 6.62263C8.10457 6.30446 7.57943 6.14537 7.47355 6.08194C7.36768 6.01851 7.28651 5.93734 7.12418 5.77501L3.07039 1.72121C2.77661 1.42742 2.91664 0.945624 3.32786 1.00502L11.6314 2.20422C13.7343 2.50792 15.5366 3.87141 16.4022 5.81349L18.0009 9.60212C18.2544 10.2029 18.3812 10.5032 18.3226 10.8027C18.2641 11.1021 18.0336 11.3327 17.5725 11.7937L11.7937 17.5726C11.3326 18.0336 11.1021 18.2641 10.8026 18.3227C10.5032 18.3812 10.2028 18.2545 9.60209 18.001L5.81347 16.4023C3.8714 15.5366 2.50792 13.7343 2.20422 11.6315L1.00502 3.32786Z" fill="white"/>
<path d="M13.9716 18.1016C13.2159 18.8573 12.838 19.2352 12.9164 19.7372C12.9947 20.2392 13.3612 20.428 14.0941 20.8056C14.3465 20.9356 14.5894 21.0006 14.8481 21.0006C15.6764 21.0006 16.343 20.334 17.6763 19.0008L19.0008 17.6763C20.334 16.343 21.0006 15.6764 21.0006 14.8481C21.0006 14.5894 20.9356 14.3465 20.8056 14.0941C20.428 13.3612 20.2392 12.9947 19.7372 12.9164C19.2352 12.838 18.8573 13.2159 18.1016 13.9716L13.9716 18.1016Z" fill="white"/>
</mask>
<g mask="url(#mask0_304_9)">
<path d="M29.623 17.7233L28.6356 17.8922C27.6482 18.0611 25.6733 18.3989 23.6985 18.1962C21.7236 17.9935 19.7488 17.2504 17.7739 16.9463C15.7991 16.6423 13.8242 16.7774 11.8493 16.8112C9.87449 16.845 7.89963 16.7774 5.92478 16.7099C3.94992 16.6423 1.97507 16.5748 0.987639 16.541L0.000211229 16.5072L0.000210837 21L0.987639 21C1.97507 21 3.94992 21 5.92478 21C7.89963 21 9.87449 21 11.8493 21C13.8242 21 15.7991 21 17.7739 21C19.7488 21 21.7236 21 23.6985 21C25.6733 21 27.6482 21 28.6356 21L29.623 21L29.623 17.7233Z" fill="#FCAF3C"/>
<path d="M29.623 15.2906L28.6356 15.3244C27.6482 15.3582 25.6733 15.4258 23.6985 15.2906C21.7236 15.1555 19.7488 14.8177 17.7739 14.5137C15.7991 14.2097 13.8242 13.9394 11.8493 13.9732C9.87449 14.007 7.89963 14.3448 5.92478 14.311C3.94992 14.2772 1.97507 13.8719 0.987639 13.6692L0.000211261 13.4665L0.00021099 16.5743L0.987639 16.6081C1.97507 16.6419 3.94992 16.7094 5.92478 16.777C7.89963 16.8445 9.87449 16.9121 11.8493 16.8783C13.8242 16.8445 15.7991 16.7094 17.7739 17.0134C19.7488 17.3175 21.7236 18.0606 23.6985 18.2633C25.6733 18.466 27.6482 18.1282 28.6356 17.9593L29.623 17.7904L29.623 15.2906Z" fill="#FF903A"/>
<path d="M29.623 5.96766L28.6356 6.64327C27.6482 7.31888 25.6733 8.6701 23.6985 9.21058C21.7236 9.75107 19.7488 9.48082 17.7739 9.0079C15.7991 8.53497 13.8242 7.85936 11.8493 8.02827C9.87449 8.19717 7.89963 9.21058 5.92478 9.31192C3.94992 9.41326 1.97507 8.60253 0.987639 8.19717L0.000211505 7.7918L0.000211003 13.5345L0.987639 13.7372C1.97507 13.9398 3.94992 14.3452 5.92478 14.379C7.89963 14.4128 9.87449 14.075 11.8493 14.0412C13.8242 14.0074 15.7991 14.2776 17.7739 14.5817C19.7488 14.8857 21.7236 15.2235 23.6985 15.3586C25.6733 15.4937 27.6482 15.4262 28.6356 15.3924L29.623 15.3586L29.623 5.96766Z" fill="#FF6F42"/>
<path d="M29.623 2.11622L28.6356 2.4878C27.6482 2.85939 25.6733 3.60256 23.6985 3.73768C21.7236 3.8728 19.7488 3.39988 17.7739 3.36609C15.7991 3.33231 13.8242 3.73768 11.8493 4.07548C9.87449 4.41329 7.89963 4.68353 5.92478 4.68353C3.94992 4.68353 1.97507 4.41329 0.987639 4.27816L0.000211312 4.14304L0.000210987 7.85889L0.987639 8.26425C1.97507 8.66962 3.94992 9.48035 5.92478 9.37901C7.89963 9.27767 9.87449 8.26426 11.8493 8.09535C13.8242 7.92645 15.7991 8.60206 17.7739 9.07499C19.7488 9.54791 21.7236 9.81816 23.6985 9.27767C25.6733 8.73718 27.6482 7.38597 28.6356 6.71036L29.623 6.03475L29.623 2.11622Z" fill="#FF4951"/>
<path d="M29.623 0.69635L28.6356 0.69635C27.6482 0.69635 25.6733 0.69635 23.6985 0.69635C21.7236 0.69635 19.7488 0.696349 17.7739 0.696349C15.7991 0.696349 13.8242 0.696349 11.8493 0.696349C9.87449 0.696349 7.89963 0.696348 5.92478 0.696348C3.94992 0.696348 1.97507 0.696348 0.987639 0.696348L0.000211191 0.696348L0.000210884 4.20951L0.987639 4.34463C1.97507 4.47975 3.94992 4.75 5.92478 4.75C7.89963 4.75 9.87449 4.47975 11.8493 4.14195C13.8242 3.80415 15.7991 3.39878 17.7739 3.43256C19.7488 3.46634 21.7236 3.93927 23.6985 3.80415C25.6733 3.66903 27.6482 2.92586 28.6356 2.55427L29.623 2.18269L29.623 0.69635Z" fill="#FF0066"/>
</g>
</svg>
