<svg width="24" height="24" viewBox="0 0 24 24" fill="none" xmlns="http://www.w3.org/2000/svg">
<path d="M21.8975 11.3028L16.4697 13.4973H20.884C20.5232 14.1922 20.1218 14.8674 19.6735 15.5098L13.4737 17.9893H17.4813C14.7047 20.4557 10.7387 21.7485 5.10501 20.4608L1.9171 23.6487C1.4782 24.0876 0.767906 24.0873 0.329002 23.6487C-0.109667 23.21 -0.109667 22.4995 0.329002 22.0606L12.186 10.2037C12.4127 9.91005 12.4032 9.4929 12.1339 9.22338C11.8414 8.93094 11.3674 8.93094 11.0755 9.22338L3.18642 17.1124C1.19043 2.73528 17.209 0.401228 22.4497 0.0253337C23.3326 -0.0380219 24.0598 0.689304 23.9961 1.57179C23.844 3.69591 23.3668 7.59223 21.8975 11.3028Z" fill="white"/>
</svg>
