<svg width="700" height="700" viewBox="0 0 700 700" fill="none" xmlns="http://www.w3.org/2000/svg">
<path d="M529.711 241.729C560.861 221.065 581.592 187.97 586.589 150.921C591.586 113.871 580.366 76.4684 555.799 48.2889C531.236 20.1095 495.71 3.89285 458.327 3.78516H242.026C204.643 3.89289 169.117 20.1095 144.555 48.2889C119.987 76.4684 108.767 113.872 113.764 150.921C118.761 187.97 139.492 221.064 170.642 241.729C134.392 265.774 112.601 306.379 112.601 349.882C112.601 393.385 134.394 433.989 170.642 458.034C132.47 483.178 110.333 526.541 112.37 572.205C114.406 617.868 140.307 659.093 180.569 680.742C220.824 702.386 269.505 701.258 308.713 677.767C347.927 654.281 371.895 611.902 371.808 566.193V447.221C396.083 467.629 426.628 479.085 458.332 479.669C495.715 479.566 531.241 463.345 555.804 435.165C580.372 406.986 591.591 369.582 586.594 332.533C581.597 295.489 560.867 262.395 529.716 241.731L529.711 241.729ZM371.8 47.0452H458.324C489.238 47.0452 517.802 63.539 533.26 90.3066C548.712 117.081 548.712 150.062 533.26 176.831C517.802 203.605 489.238 220.092 458.324 220.092H371.8V47.0452ZM155.5 133.569C155.5 110.622 164.616 88.6151 180.842 72.388C197.069 56.1609 219.076 47.0452 242.024 47.0452H328.548V220.099H242.024C219.076 220.099 197.07 210.983 180.842 194.756C164.617 178.53 155.5 156.522 155.5 133.575V133.569ZM155.5 349.883C155.5 326.936 164.616 304.929 180.842 288.702C197.068 272.476 219.076 263.359 242.024 263.359H328.548V436.412H242.024C219.076 436.412 197.07 427.296 180.842 411.07C164.617 394.844 155.5 372.835 155.5 349.888V349.883ZM328.553 566.197C328.553 589.144 319.437 611.151 303.21 627.378C286.984 643.605 264.976 652.721 242.029 652.721C219.082 652.721 197.075 643.604 180.848 627.378C164.621 611.151 155.505 589.144 155.505 566.197C155.505 543.249 164.621 521.242 180.848 505.015C197.073 488.789 219.082 479.672 242.029 479.672H328.553V566.197ZM458.334 436.411C435.386 436.411 413.379 427.295 397.152 411.068C380.926 394.842 371.809 372.834 371.809 349.887C371.809 326.94 380.926 304.933 397.152 288.705C413.378 272.48 435.386 263.363 458.334 263.363C481.281 263.363 503.288 272.479 519.515 288.705C535.741 304.931 544.858 326.94 544.858 349.887C544.858 372.834 535.742 394.841 519.515 411.068C503.289 427.294 481.281 436.411 458.334 436.411Z" fill="black"/>
</svg>
