<svg width="22" height="22" viewBox="0 0 22 22" fill="none" xmlns="http://www.w3.org/2000/svg">
<path fill-rule="evenodd" clip-rule="evenodd" d="M10.1443 0.517733C9.08507 0.610112 8.10434 0.839073 7.14417 1.21819C4.23435 2.36707 1.99569 4.73273 1.01756 7.6924C0.650627 8.8027 0.500316 9.7581 0.5 10.982C0.499685 12.2075 0.65605 13.1826 1.03557 14.3216C1.5561 15.8839 2.39292 17.229 3.58864 18.4257C4.4834 19.3211 5.3347 19.9272 6.46808 20.4756C7.57933 21.0133 8.69498 21.3293 9.94506 21.4604C10.4444 21.5128 11.5584 21.5133 12.0486 21.4613C14.2613 21.2268 16.2629 20.3551 17.91 18.9088C19.7089 17.3291 20.9154 15.1997 21.3432 12.849C21.4644 12.1834 21.5 11.7595 21.5 10.982C21.5 10.2306 21.4666 9.81166 21.3555 9.16856C20.9609 6.88363 19.7611 4.72155 18.0332 3.18136C16.3783 1.70617 14.4259 0.823532 12.2239 0.5551C11.8046 0.50398 10.5588 0.481602 10.1443 0.517733ZM11.5922 2.1475C13.7212 2.29699 15.6659 3.16513 17.1826 4.64317C18.6881 6.11026 19.5961 7.98137 19.8183 10.0748C19.8691 10.5529 19.8687 11.4062 19.8176 11.8965C19.4769 15.1628 17.2721 18.0446 14.1108 19.3555C13.8817 19.4505 13.6773 19.5283 13.6567 19.5283C13.6248 19.5283 13.6191 19.3757 13.6188 18.5224C13.6185 17.6435 13.6122 17.4868 13.5693 17.28C13.4746 16.8237 13.2918 16.4888 12.9804 16.2008C12.8793 16.1073 12.807 16.0308 12.8196 16.0307C12.9007 16.0302 13.633 15.9114 13.8955 15.8561C16.0096 15.4111 17.1769 14.1545 17.4463 12.0339C17.639 10.5159 17.3733 9.39337 16.6026 8.47032L16.4705 8.31217L16.517 8.17546C16.6261 7.85514 16.6583 7.61714 16.6571 7.14275C16.6561 6.77129 16.6447 6.63061 16.598 6.41306C16.5305 6.09866 16.3904 5.66554 16.3473 5.63769C16.2961 5.60469 15.9779 5.61565 15.7535 5.65817C15.2156 5.76012 14.5549 6.05651 13.8368 6.51803L13.5937 6.67423L13.3103 6.60702C11.8153 6.2525 10.2809 6.25236 8.7949 6.60663L8.5116 6.67415L8.26842 6.5188C7.536 6.05091 6.92884 5.77924 6.34741 5.65928C6.08541 5.60521 5.79192 5.60392 5.73919 5.65662C5.69436 5.7014 5.61579 5.93079 5.54087 6.23553C5.38484 6.8703 5.39414 7.56925 5.5663 8.14919L5.61916 8.32727L5.4894 8.47789C5.08441 8.94802 4.79455 9.55162 4.66348 10.1978C4.61002 10.4613 4.60323 10.5695 4.60412 11.1398C4.60528 11.8586 4.64106 12.1903 4.77665 12.7397C4.97529 13.5445 5.3004 14.141 5.82564 14.6642C6.52921 15.3652 7.45716 15.7679 8.82747 15.9671C9.08047 16.0038 9.29011 16.0366 9.29335 16.0398C9.29656 16.043 9.24357 16.0906 9.17555 16.1456C8.98528 16.2992 8.83607 16.4945 8.71053 16.754C8.5051 17.1788 8.50344 17.1917 8.49247 18.4304C8.4847 19.3083 8.47591 19.5283 8.44856 19.5283C8.39038 19.5283 7.88393 19.3326 7.5345 19.1752C5.21827 18.1313 3.39279 16.147 2.60349 13.8149C2.28349 12.8695 2.14234 12.0024 2.14234 10.982C2.14234 8.92385 2.79544 7.06671 4.09662 5.42482C4.37284 5.07626 5.07862 4.37389 5.44547 4.08245C6.79077 3.01367 8.33189 2.37249 9.99955 2.18778C10.63 2.11796 11.0281 2.10789 11.5922 2.1475Z" fill="white"/>
</svg>
