<svg width="23" height="24" viewBox="0 0 23 24" fill="none" xmlns="http://www.w3.org/2000/svg">
<path d="M15.625 22.8749V19.0049C15.6625 18.5281 15.5981 18.0487 15.436 17.5987C15.2739 17.1487 15.0179 16.7384 14.685 16.3949C17.825 16.0449 21.125 14.8549 21.125 9.39494C21.1247 7.99876 20.5877 6.65614 19.625 5.64494C20.0809 4.42344 20.0486 3.07329 19.535 1.87494C19.535 1.87494 18.355 1.52494 15.625 3.35494C13.333 2.73376 10.917 2.73376 8.625 3.35494C5.895 1.52494 4.715 1.87494 4.715 1.87494C4.20138 3.07329 4.16914 4.42344 4.625 5.64494C3.65513 6.66364 3.11752 8.0184 3.125 9.42494C3.125 14.8449 6.425 16.0349 9.565 16.4249C9.236 16.7649 8.98226 17.1703 8.82031 17.6149C8.65835 18.0594 8.59181 18.533 8.625 19.0049V22.8749M8.625 19.8749C3.625 21.3749 3.625 17.3749 1.625 16.8749L8.625 19.8749Z" stroke="white" stroke-width="2" stroke-linecap="round" stroke-linejoin="round"/>
</svg>
