<svg width="21" height="21" viewBox="0 0 21 21" fill="none" xmlns="http://www.w3.org/2000/svg">
<path d="M5.47023 1.04513C6.1214 1.2553 6.92689 1.59027 7.70708 2.08963C8.65259 1.85829 9.66226 1.73387 10.7086 1.73387C11.7537 1.73387 12.7624 1.85804 13.7071 2.08893C14.4871 1.58982 15.2925 1.25502 15.9434 1.04496C16.677 0.808257 17.7225 0.423897 18.3433 1.07656C18.7647 1.51966 18.8693 2.26333 18.9444 2.8303C19.0284 3.46386 19.048 4.2897 18.827 5.1085C19.6722 6.14428 20.1821 7.38073 20.1821 8.72696C20.1821 10.7671 19.0178 12.538 17.2945 13.7646C16.5014 14.3291 15.5793 14.7883 14.5681 15.1194C14.7937 15.6093 14.919 16.1503 14.919 16.7191V19.7161C14.919 20.2678 14.4476 20.7151 13.8664 20.7151H7.55066C6.96933 20.7151 6.49805 20.2678 6.49805 19.7161V18.7258C5.49247 18.8427 4.64975 18.7393 3.93236 18.4504C3.18312 18.1487 2.6609 17.6808 2.2684 17.2337C1.89609 16.8098 1.4902 15.8548 0.902101 15.6688C0.350595 15.4943 0.0525378 14.9285 0.236366 14.4051C0.420205 13.8817 1.01632 13.5988 1.56783 13.7733C2.26863 13.9949 2.72495 14.4747 3.03826 14.8595C3.54253 15.4788 3.95451 16.289 4.75456 16.6111C5.08356 16.7435 5.56692 16.8314 6.32148 16.7327L6.49811 16.6993C6.50098 16.1377 6.62588 15.6036 6.84895 15.1194C5.83773 14.7883 4.91557 14.3291 4.12246 13.7646C2.39919 12.538 1.23499 10.7671 1.23499 8.72696C1.23499 7.38231 1.74365 6.14716 2.587 5.11212C2.36522 4.29268 2.38457 3.46595 2.46851 2.83176C2.4702 2.81902 2.47188 2.80623 2.47358 2.79339C2.55029 2.21249 2.64069 1.5279 3.06971 1.07667C3.69032 0.423966 4.73673 0.808396 5.47023 1.04513Z" fill="white"/>
</svg>
