<svg width="700" height="700" viewBox="0 0 700 700" fill="none" xmlns="http://www.w3.org/2000/svg">
<g clip-path="url(#clip0_146_7)">
<path d="M415.704 266.126C408.882 253.626 393.208 249.008 380.705 255.844C368.193 262.67 363.598 278.338 370.411 290.847C391.543 329.572 390.298 376.824 367.157 414.159L302.236 518.911C285 546.734 257.948 566.179 226.096 573.658C194.227 581.142 161.365 575.767 133.539 558.525C105.723 541.289 86.2855 514.241 78.8044 482.382C71.3233 450.524 76.6973 417.656 93.939 389.832L158.856 285.062C182 247.714 223.779 225.55 267.823 227.251C282.048 227.799 294.052 216.712 294.588 202.465C295.134 188.235 284.044 176.244 269.807 175.699C207.23 173.284 147.897 204.789 114.998 257.889L50.0684 362.662C25.5663 402.203 17.9266 448.905 28.5598 494.187C39.1858 539.464 66.8095 577.892 106.354 602.381C145.894 626.883 192.597 634.523 237.878 623.889C283.154 613.258 321.582 585.634 346.071 546.09L410.995 441.324C443.901 388.245 445.701 321.111 415.698 266.126L415.704 266.126ZM593.635 97.624C554.106 73.1191 507.398 65.4808 462.122 76.1126C416.846 86.7444 378.418 114.368 353.93 153.912L288.994 258.687C256.09 311.771 254.296 378.904 284.297 433.883C291.12 446.384 306.815 451.009 319.297 444.165C331.809 437.339 336.404 421.671 329.591 409.163C308.459 370.437 309.704 323.185 332.845 285.85L397.768 181.079C415.003 153.256 442.056 133.811 473.908 126.332C505.761 118.852 538.639 124.223 566.458 141.466C594.275 158.703 613.724 185.748 621.205 217.606C628.689 249.475 623.313 282.337 606.072 310.163L541.161 414.931C518.012 452.281 476.261 474.438 432.173 472.734C417.974 472.193 405.962 483.276 405.408 497.52C404.874 511.748 415.964 523.739 430.206 524.282C446.035 524.89 461.657 523.335 476.699 519.803C521.117 509.372 560.435 481.762 585.013 442.104L649.93 337.334C674.432 297.793 682.072 251.091 671.439 205.809C660.803 160.54 633.167 122.115 593.633 97.618L593.635 97.624Z" fill="black"/>
</g>
<defs>
<clipPath id="clip0_146_7">
<rect width="700" height="700" fill="white"/>
</clipPath>
</defs>
</svg>
