<svg width="700" height="700" viewBox="0 0 700 700" fill="none" xmlns="http://www.w3.org/2000/svg">
<path d="M532.626 103.273H379.29C338.992 103.339 300.232 118.815 270.956 146.516C241.682 174.216 224.097 212.057 221.8 252.3H166.701C124.855 252.337 84.7364 268.966 55.1337 298.542C25.531 328.116 8.87464 368.227 8.79785 410.073V573.214C8.79785 586.197 19.3246 596.724 32.3168 596.724H322.729C362.895 596.489 401.468 580.957 430.593 553.303C459.727 525.642 477.228 487.931 479.551 447.829H667.693C680.675 447.829 691.202 437.303 691.202 424.31V261.169C691.174 219.194 674.432 178.941 644.679 149.321C614.928 119.7 574.62 103.127 532.635 103.276L532.626 103.273ZM432.916 439.231C432.775 468.431 421.124 496.412 400.501 517.09C379.869 537.759 351.926 549.476 322.717 549.692H55.8464V410.068C55.8745 380.672 67.573 352.494 88.3551 331.713C109.137 310.931 137.314 299.233 166.71 299.195H322.729C352.125 299.232 380.303 310.931 401.084 331.713C421.866 352.495 433.554 380.672 433.593 410.068V438.826L432.916 439.231ZM643.499 401.201L479.672 401.192V397.695V397.705C479.55 395.23 479.278 392.755 478.866 390.309C478.603 387.562 478.2 384.825 477.656 382.116C477.656 379.698 476.719 377.41 476.175 374.992H476.185C475.65 372.358 474.975 369.761 474.169 367.193C473.494 364.906 472.829 362.628 472.023 360.34C471.217 358.053 470.279 355.232 469.332 352.813L466.108 346.364C465.03 343.946 463.821 341.527 462.611 339.109L459.387 332.931C458.046 330.644 456.696 328.367 455.225 326.079L451.325 319.489C449.844 317.343 448.232 315.187 446.62 313.171C445.007 311.156 443.798 309.413 442.186 307.66C440.573 305.916 438.689 303.76 436.946 301.745L432.109 296.777C430.225 294.892 428.209 293.149 426.194 291.405L420.954 286.84L414.505 282.135C412.621 280.794 410.877 279.313 408.862 278.104L402.009 273.801L396.095 270.446C393.676 269.105 391.127 268.027 388.567 266.818C386.018 265.609 384.537 264.803 382.39 263.996C380.244 263.19 377.019 261.981 374.329 261.044L368.151 258.756L359.284 256.469L353.238 254.988C349.882 254.988 346.517 253.91 343.02 253.507C339.524 253.104 339.664 253.507 337.911 252.701H337.902C332.849 252.317 327.778 252.185 322.717 252.298H268.968C271.255 224.56 283.882 198.698 304.335 179.839C324.798 160.969 351.597 150.481 379.429 150.443H532.625C562.012 150.471 590.199 162.169 610.981 182.951C631.762 203.733 643.451 231.91 643.489 261.306L643.499 401.201Z" fill="black"/>
</svg>
