<svg width="538" height="538" viewBox="0 0 538 538" fill="none" xmlns="http://www.w3.org/2000/svg">
<path d="M61.7918 371.66C61.7449 371.707 61.7293 371.777 61.6824 371.824L21.8704 411.636C7.89343 425.613 0.19043 444.171 0.19043 463.89C0.19043 483.609 7.88963 502.167 21.8704 516.144C35.8154 530.105 54.3434 537.8 73.9444 537.8H74.4249C93.9719 537.8 112.402 530.12 126.378 516.148L269.148 373.378C334.031 436.464 446.778 531.378 501.858 531.368C510.694 531.368 518.057 528.911 523.483 523.489C562.901 484.079 446.729 344.349 373.403 269.119L476.343 166.179C477.425 165.097 478.28 163.804 478.835 162.382L537.023 15.5223C538.664 11.37 537.691 6.63556 534.531 3.47926C531.371 0.311258 526.625 -0.653543 522.488 0.987057L375.918 59.0691C374.441 59.612 373.047 60.4129 371.863 61.6003C371.816 61.6471 371.801 61.7135 371.754 61.7643L264.424 169.084C245.662 153.936 228.432 140.955 212.998 130.342C215.103 104.733 206.428 78.3933 186.873 58.8423C154.17 26.1433 32.9228 8.49432 19.2128 6.58432C15.744 6.10385 12.2323 7.27963 9.75192 9.76402C7.26752 12.2445 6.09572 15.7445 6.58002 19.2171C8.48232 32.9401 26.111 154.187 58.814 186.887C76.466 204.539 99.654 213.367 122.841 213.367C125.333 213.367 127.825 213.215 130.31 213.012C140.845 228.461 153.833 245.696 169.064 264.442L61.9538 371.552C61.907 371.599 61.8366 371.61 61.7898 371.661L61.7918 371.66ZM507.652 507.65C495.547 519.798 408.797 478.388 285.012 357.51L357.524 284.998C476.794 406.898 519.544 495.738 507.644 507.648L507.652 507.65ZM349.782 261.07C349.766 261.086 349.747 261.09 349.735 261.101C349.719 261.117 349.715 261.136 349.704 261.152L261.134 349.722C261.126 349.73 261.11 349.734 261.102 349.745C261.095 349.753 261.091 349.769 261.083 349.777L158.423 452.437L129.9 423.914L424.12 129.684L452.647 158.211L349.782 261.07ZM506.662 31.36L464.318 138.23L399.795 73.707L506.662 31.36ZM74.6518 171.06C54.1868 150.595 37.9448 73.24 31.0348 31.06C73.2108 37.9741 150.555 54.208 171.035 74.689C197.601 101.255 197.601 144.494 171.035 171.06C144.453 197.626 101.23 197.626 74.6518 171.06V171.06ZM153.91 207.81C165.937 203.431 177.242 196.525 186.871 186.896C196.492 177.279 203.394 165.99 207.773 153.978C220.23 162.837 233.898 173.29 248.492 185.029L184.992 248.529C173.187 233.943 162.722 220.275 153.91 207.81V207.81ZM379.8 85.39L408.269 113.859L114.049 408.089L85.5758 379.616L379.8 85.39ZM142.57 468.28L110.539 500.311C100.793 510.053 87.9838 515.401 74.3548 515.401H74.015C60.32 515.401 47.425 510.042 37.703 500.307C27.9569 490.557 22.586 477.627 22.586 463.889C22.586 450.151 27.9571 437.225 37.703 427.471L69.734 395.44L142.57 468.28Z" fill="black"/>
</svg>
