<svg width="700" height="700" viewBox="0 0 700 700" fill="none" xmlns="http://www.w3.org/2000/svg">
<path d="M689.816 350.127C689.816 295.755 634.312 256.109 555.026 231.189C573.15 150.764 566.354 82.8059 519.911 55.6201C473.469 28.4343 410.035 56.7528 350 112.257C289.964 56.7528 226.531 28.4343 180.088 55.6201C133.646 82.8059 126.85 150.77 144.973 231.189C65.6815 256.109 10.1836 295.755 10.1836 350.127C10.1836 404.498 65.688 444.144 144.973 469.064C126.85 549.489 133.646 617.447 180.088 644.633C192.549 651.429 206.142 654.828 219.734 654.828C259.38 654.828 305.823 628.775 349.993 586.863C394.17 627.642 440.613 654.828 480.252 654.828C493.845 654.828 507.438 651.429 519.898 644.633C566.341 617.447 573.137 549.483 555.013 469.064C634.305 444.144 689.803 404.498 689.803 350.127H689.816ZM497.25 95.2531C519.905 108.846 525.568 155.288 511.975 219.855C487.055 214.191 459.869 209.66 432.683 207.395C416.825 184.74 399.834 164.35 381.71 145.094C430.418 100.917 474.595 81.6602 497.25 95.2531ZM488.188 404.498C492.719 415.826 496.117 426.02 499.515 437.348L465.533 444.144C468.931 437.348 473.462 431.684 476.86 424.888C481.391 416.958 484.79 410.162 488.188 404.498ZM438.347 401.1C428.152 418.091 417.958 435.082 407.763 449.808C388.507 450.941 370.383 452.073 349.993 452.073C329.604 452.073 311.48 450.941 292.223 449.808C282.029 433.949 271.834 418.091 261.639 401.1C251.445 384.109 242.383 367.118 234.454 350.127C242.383 333.135 251.445 316.144 261.639 299.153C271.834 282.162 282.029 265.171 292.223 250.445C310.347 249.313 329.604 248.18 349.993 248.18C370.383 248.18 388.507 249.313 407.763 250.445C417.958 266.304 428.152 282.162 438.347 299.153C448.542 316.144 457.604 333.135 465.533 350.127C457.604 367.118 448.542 384.109 438.347 401.1ZM349.993 523.436C342.064 515.507 335.268 506.445 327.338 497.383H349.993H372.648C364.719 506.445 357.922 514.374 349.993 523.436ZM221.993 423.755C225.392 430.551 229.923 436.215 233.321 443.011L199.339 436.215C202.737 426.02 206.135 414.693 210.666 403.365C215.197 410.162 218.595 416.958 221.993 423.755ZM211.799 295.755C207.268 284.428 203.87 274.233 200.471 262.905L234.454 256.109C231.055 262.905 226.524 268.569 223.126 275.366C218.595 283.295 215.197 290.091 211.799 295.755ZM349.993 176.817C357.922 184.746 364.719 193.808 372.648 202.87H349.993H327.338C335.268 193.808 342.064 185.879 349.993 176.817ZM477.993 276.498C474.595 269.702 470.064 264.038 466.666 257.242L500.648 264.038C497.25 274.233 493.852 285.56 489.321 296.888C484.79 290.091 481.391 283.295 477.993 276.498ZM202.743 95.2596C207.274 92.9941 212.938 90.7286 219.734 90.7286C244.655 90.7286 279.77 109.985 318.283 145.1C301.292 164.357 284.301 184.746 267.31 207.401C240.124 210.799 212.938 214.198 188.018 219.861C174.425 155.295 180.088 108.853 202.743 95.2596ZM55.4868 350.133C55.4868 324.08 94 295.761 156.301 275.372C164.23 300.292 173.292 325.213 184.619 350.133C173.292 375.053 164.23 399.974 156.301 424.894C94 404.505 55.4868 376.186 55.4868 350.133ZM202.743 605.006C180.088 591.414 174.425 544.971 188.018 480.405C212.938 486.069 240.124 490.6 267.31 492.865C283.168 515.52 300.159 535.909 318.283 555.166C269.575 599.343 225.398 618.599 202.743 605.006ZM497.256 605.006C474.601 618.599 430.424 599.343 381.717 555.166C398.708 535.909 415.699 515.52 432.69 492.865C459.876 489.467 487.062 486.069 511.982 480.405C525.575 544.971 519.911 591.414 497.256 605.006ZM543.699 424.907C535.769 399.987 526.708 375.066 515.38 350.146C526.708 325.226 535.769 300.305 543.699 275.385C605.999 295.774 644.513 324.093 644.513 350.146C644.513 376.199 605.999 404.518 543.699 424.907Z" fill="black"/>
<path d="M417.958 350.128C417.958 387.665 387.531 418.092 349.994 418.092C312.457 418.092 282.029 387.665 282.029 350.128C282.029 312.59 312.457 282.163 349.994 282.163C387.531 282.163 417.958 312.59 417.958 350.128Z" fill="black"/>
</svg>
