<svg width="318" height="318" viewBox="0 0 318 318" fill="none" xmlns="http://www.w3.org/2000/svg">
<path d="M78.6174 113.729C78.6194 94.399 94.2911 78.7289 113.621 78.7289H158.823C203.117 78.7289 239.021 114.637 239.017 158.931C239.012 203.225 203.1 239.133 158.806 239.133C114.512 239.133 78.6079 203.225 78.6126 158.931L78.6174 113.729Z" fill="url(#paint0_linear_237_6)"/>
<path fill-rule="evenodd" clip-rule="evenodd" d="M233.552 189.331C222.916 194.54 210.959 197.465 198.318 197.465C154.024 197.465 118.12 161.557 118.125 117.263L118.129 79.0706L159.184 79.0706C203.479 79.0706 239.383 114.978 239.378 159.273C239.377 169.902 237.308 180.048 233.552 189.331Z" fill="url(#paint1_linear_237_6)"/>
<defs>
<linearGradient id="paint0_linear_237_6" x1="252.829" y1="274.486" x2="6.4322" y2="79.97" gradientUnits="userSpaceOnUse">
<stop stop-color="#136AEC"/>
<stop offset="1" stop-color="#08C0FA"/>
</linearGradient>
<linearGradient id="paint1_linear_237_6" x1="266.665" y1="186.582" x2="-15.0881" y2="-85.5827" gradientUnits="userSpaceOnUse">
<stop stop-color="#08A3FA"/>
<stop offset="1" stop-color="#136AEC"/>
</linearGradient>
</defs>
</svg>
