<svg id="visual" viewBox="0 0 2560 1440" width="2560" height="1440" xmlns="http://www.w3.org/2000/svg" xmlns:xlink="http://www.w3.org/1999/xlink" version="1.1"><path d="M0 548L85.3 500C170.7 452 341.3 356 512 346.5C682.7 337 853.3 414 1024 430.8C1194.7 447.7 1365.3 404.3 1536 373C1706.7 341.7 1877.3 322.3 2048 310.3C2218.7 298.3 2389.3 293.7 2474.7 291.3L2560 289L2560 0L2474.7 0C2389.3 0 2218.7 0 2048 0C1877.3 0 1706.7 0 1536 0C1365.3 0 1194.7 0 1024 0C853.3 0 682.7 0 512 0C341.3 0 170.7 0 85.3 0L0 0Z" fill="#136aec"></path><path d="M0 836L85.3 776C170.7 716 341.3 596 512 572C682.7 548 853.3 620 1024 670.5C1194.7 721 1365.3 750 1536 716.5C1706.7 683 1877.3 587 2048 565.3C2218.7 543.7 2389.3 596.3 2474.7 622.7L2560 649L2560 287L2474.7 289.3C2389.3 291.7 2218.7 296.3 2048 308.3C1877.3 320.3 1706.7 339.7 1536 371C1365.3 402.3 1194.7 445.7 1024 428.8C853.3 412 682.7 335 512 344.5C341.3 354 170.7 450 85.3 498L0 546Z" fill="#0079f2"></path><path d="M0 995L85.3 949.3C170.7 903.7 341.3 812.3 512 802.7C682.7 793 853.3 865 1024 905.8C1194.7 946.7 1365.3 956.3 1536 894C1706.7 831.7 1877.3 697.3 2048 666.2C2218.7 635 2389.3 707 2474.7 743L2560 779L2560 647L2474.7 620.7C2389.3 594.3 2218.7 541.7 2048 563.3C1877.3 585 1706.7 681 1536 714.5C1365.3 748 1194.7 719 1024 668.5C853.3 618 682.7 546 512 570C341.3 594 170.7 714 85.3 774L0 834Z" fill="#0088f6"></path><path d="M0 1225L85.3 1220.2C170.7 1215.3 341.3 1205.7 512 1208C682.7 1210.3 853.3 1224.7 1024 1248.7C1194.7 1272.7 1365.3 1306.3 1536 1318.3C1706.7 1330.3 1877.3 1320.7 2048 1287.2C2218.7 1253.7 2389.3 1196.3 2474.7 1167.7L2560 1139L2560 777L2474.7 741C2389.3 705 2218.7 633 2048 664.2C1877.3 695.3 1706.7 829.7 1536 892C1365.3 954.3 1194.7 944.7 1024 903.8C853.3 863 682.7 791 512 800.7C341.3 810.3 170.7 901.7 85.3 947.3L0 993Z" fill="#0096f9"></path><path d="M0 1441L85.3 1441C170.7 1441 341.3 1441 512 1441C682.7 1441 853.3 1441 1024 1441C1194.7 1441 1365.3 1441 1536 1441C1706.7 1441 1877.3 1441 2048 1441C2218.7 1441 2389.3 1441 2474.7 1441L2560 1441L2560 1137L2474.7 1165.7C2389.3 1194.3 2218.7 1251.7 2048 1285.2C1877.3 1318.7 1706.7 1328.3 1536 1316.3C1365.3 1304.3 1194.7 1270.7 1024 1246.7C853.3 1222.7 682.7 1208.3 512 1206C341.3 1203.7 170.7 1213.3 85.3 1218.2L0 1223Z" fill="#08a3fa"></path></svg>