<svg width="166" height="166" viewBox="0 0 166 166" fill="none" xmlns="http://www.w3.org/2000/svg">
<g clip-path="url(#clip0_157_21)">
<path d="M165.42 130.417C165.418 149.746 149.746 165.417 130.416 165.417L82.7077 165.416C37.0292 165.416 0.00332861 128.387 0.0081564 82.7082V82.7082C0.0129842 37.0298 37.0467 1.19871e-05 82.7252 1.59804e-05V1.59804e-05C128.404 1.99738e-05 165.43 37.0298 165.425 82.7083L165.42 130.417Z" fill="url(#paint0_linear_157_21)"/>
<path fill-rule="evenodd" clip-rule="evenodd" d="M6.21433 51.5019C17.182 46.1302 29.5134 43.1146 42.5488 43.1146C88.2273 43.1146 125.253 80.1444 125.248 125.823L125.244 165.208L82.9056 165.208C37.2271 165.208 0.20121 128.179 0.206038 82.5001C0.207196 71.5386 2.34071 61.0751 6.21433 51.5019Z" fill="url(#paint1_linear_157_21)"/>
</g>
<defs>
<linearGradient id="paint0_linear_157_21" x1="-14.2358" y1="-36.4584" x2="239.861" y2="164.137" gradientUnits="userSpaceOnUse">
<stop stop-color="#136AEC"/>
<stop offset="1" stop-color="#08C0FA"/>
</linearGradient>
<linearGradient id="paint1_linear_157_21" x1="-27.9336" y1="54.3373" x2="262.624" y2="335.007" gradientUnits="userSpaceOnUse">
<stop stop-color="#08A3FA"/>
<stop offset="1" stop-color="#136AEC"/>
</linearGradient>
<clipPath id="clip0_157_21">
<rect width="166" height="166" fill="white"/>
</clipPath>
</defs>
</svg>
