<svg width="228" height="228" viewBox="0 0 228 228" fill="none" xmlns="http://www.w3.org/2000/svg">
<g filter="url(#filter0_b_134_38)">
<path d="M202.737 88.8418C216.435 102.48 216.485 124.642 202.849 138.342L170.96 170.378C139.712 201.772 88.9338 201.887 57.5438 170.635C26.1538 139.384 26.0388 88.6001 57.287 57.2068C88.5351 25.8135 139.313 25.6985 170.703 56.9499L202.737 88.8418Z" fill="url(#paint0_linear_134_38)"/>
</g>
<path fill-rule="evenodd" clip-rule="evenodd" d="M40.3505 145.301C44.1616 134.088 50.5249 123.55 59.4423 114.592C90.6905 83.1982 141.469 83.0832 172.859 114.335L199.924 141.28L170.96 170.378C139.712 201.772 88.934 201.887 57.544 170.635C50.0115 163.136 44.2799 154.512 40.3505 145.301Z" fill="url(#paint1_linear_134_38)"/>
<defs>
<filter id="filter0_b_134_38" x="-6.07422" y="-6.41364" width="259.117" height="240.412" filterUnits="userSpaceOnUse" color-interpolation-filters="sRGB">
<feFlood flood-opacity="0" result="BackgroundImageFix"/>
<feGaussianBlur in="BackgroundImageFix" stdDeviation="20"/>
<feComposite in2="SourceAlpha" operator="in" result="effect1_backgroundBlur_134_38"/>
<feBlend mode="normal" in="SourceGraphic" in2="effect1_backgroundBlur_134_38" result="shape"/>
</filter>
<linearGradient id="paint0_linear_134_38" x1="-52.0327" y1="38.3848" x2="240.967" y2="129.159" gradientUnits="userSpaceOnUse">
<stop stop-color="#A7B8D1"/>
<stop offset="1" stop-color="white"/>
</linearGradient>
<linearGradient id="paint1_linear_134_38" x1="269.968" y1="158.385" x2="-67.6233" y2="170.135" gradientUnits="userSpaceOnUse">
<stop stop-color="#A7B8D1"/>
<stop offset="1" stop-color="white"/>
</linearGradient>
</defs>
</svg>
