<svg width="166" height="167" viewBox="0 0 166 167" fill="none" xmlns="http://www.w3.org/2000/svg">
<path d="M165.43 131.289C165.43 150.619 149.76 166.289 130.43 166.289L82.7346 166.289C37.0536 166.289 0.0218996 129.253 0.0219036 83.5717C0.0219076 37.8956 37.0497 0.863407 82.7258 0.863411C128.402 0.863415 165.43 37.8912 165.43 83.5673L165.43 131.289Z" fill="url(#paint0_linear_116_42)"/>
<path fill-rule="evenodd" clip-rule="evenodd" d="M6.02413 52.5772C16.9909 47.2051 29.3216 44.1891 42.3567 44.1891C88.0328 44.1891 125.061 81.2169 125.061 126.893L125.061 166.289L82.7332 166.289C37.0523 166.289 0.0205568 129.253 0.0205608 83.5717C0.0205618 72.6118 2.15244 62.1496 6.02413 52.5772Z" fill="url(#paint1_linear_116_42)"/>
<defs>
<linearGradient id="paint0_linear_116_42" x1="97.7189" y1="48.9577" x2="21.8163" y2="245.042" gradientUnits="userSpaceOnUse">
<stop stop-color="#FCC00A"/>
<stop offset="1" stop-color="#F7991D"/>
</linearGradient>
<linearGradient id="paint1_linear_116_42" x1="-30.501" y1="73.7293" x2="159.092" y2="183.508" gradientUnits="userSpaceOnUse">
<stop stop-color="#FCC00A"/>
<stop offset="1" stop-color="#F7991D"/>
</linearGradient>
</defs>
</svg>
