<svg width="161" height="161" viewBox="0 0 161 161" fill="none" xmlns="http://www.w3.org/2000/svg">
<path d="M161 125.429C161 144.759 145.33 160.429 126 160.429L80.8107 160.429C36.5141 160.429 0.604572 124.515 0.604575 80.2185C0.604579 35.9265 36.5103 0.0165602 80.8023 0.016564C125.094 0.0165679 161 35.9223 161 80.2143L161 125.429Z" fill="url(#paint0_linear_116_42)"/>
<path fill-rule="evenodd" clip-rule="evenodd" d="M6.42475 50.1635C17.0593 44.954 29.0166 42.0293 41.6568 42.0293C85.9488 42.0293 121.854 77.9351 121.854 122.227L121.854 160.429L80.8094 160.429C36.5127 160.429 0.603183 124.515 0.603187 80.2185C0.603188 69.5908 2.67043 59.4457 6.42475 50.1635Z" fill="url(#paint1_linear_116_42)"/>
<defs>
<linearGradient id="paint0_linear_116_42" x1="95.3411" y1="46.6535" x2="21.7385" y2="236.796" gradientUnits="userSpaceOnUse">
<stop stop-color="#FCC00A"/>
<stop offset="1" stop-color="#F7991D"/>
</linearGradient>
<linearGradient id="paint1_linear_116_42" x1="-28.9936" y1="70.6744" x2="154.855" y2="177.127" gradientUnits="userSpaceOnUse">
<stop stop-color="#FCC00A"/>
<stop offset="1" stop-color="#F7991D"/>
</linearGradient>
</defs>
</svg>
