<svg width="1060" height="263" viewBox="0 0 1060 263" fill="none" xmlns="http://www.w3.org/2000/svg">
<path fill-rule="evenodd" clip-rule="evenodd" d="M71.7038 2.04201C42.2988 8.31301 18.9448 29.093 12.0908 55.086C9.42981 65.178 9.18081 83.888 11.5818 93.386C15.4368 108.64 24.3378 121.356 37.0308 129.745C50.9238 138.926 61.0708 143.19 91.1378 152.481C111.56 158.792 126.398 165.097 131.998 169.845C142.059 178.375 142.522 193.768 132.998 203.088C125.029 210.886 113.101 214.087 95.7458 213.083C72.2178 211.722 55.0858 201.121 46.0188 182.312C44.1958 178.531 42.2898 175.425 41.7838 175.411C41.2768 175.397 31.4908 180.884 20.0348 187.603C-3.47319 201.393 -1.91019 199.159 3.84881 210.746C8.72281 220.552 12.5998 225.911 20.6388 233.958C35.3548 248.69 52.3598 257.115 75.0288 260.905C88.1558 263.1 117.041 262.581 127.677 259.958C153.637 253.557 173.184 239.382 182.734 220.033C188.192 208.973 190.164 200.181 190.187 186.796C190.207 174.724 187.813 164.164 182.683 153.702C179.955 148.14 177.38 144.868 171.271 139.202C157.945 126.845 147.71 121.81 111.704 109.9C77.0388 98.433 68.5158 94.188 63.7158 85.996C60.5148 80.534 59.4308 72.257 61.2108 66.864C62.9848 61.488 69.3378 55.012 75.4768 52.321C81.9578 49.48 96.7108 48.513 105.103 50.381C117.996 53.249 131.271 63.473 137.607 75.415C139.204 78.424 140.642 81.05 140.804 81.249C141.12 81.641 181.122 58.782 182.581 57.377C183.815 56.188 177.258 44.843 170.212 35.977C156.521 18.748 135.367 6.02902 113.366 1.79702C103.776 -0.0469829 80.8688 0.0870122 71.7038 2.04201ZM941.704 1.87101C932.623 3.87901 926.468 6.15601 918.204 10.567C892.381 24.348 879.167 46.39 879.221 75.594C879.267 100.009 888.825 118.443 907.772 130.661C921.312 139.391 932.086 143.776 966.204 154.442C998.524 164.546 1009.11 172.388 1009.18 186.27C1009.27 203.329 994.849 213.312 970.042 213.369C943.565 213.429 923.706 201.467 913.948 179.582L911.704 174.55L890.704 186.837C879.154 193.595 869.57 199.797 869.407 200.62C868.959 202.87 873.599 212.707 878.791 220.517C891.173 239.142 910.704 252.612 934.704 259.079C944.125 261.617 946.008 261.776 967.204 261.83C987.709 261.881 990.502 261.678 998.704 259.536C1029.58 251.473 1050.98 231.89 1057.89 205.386C1060.26 196.27 1060.2 177.084 1057.76 168.386C1054.61 157.139 1049.43 147.448 1043.31 141.363C1030.01 128.15 1017.58 121.905 979.704 109.425C938.567 95.871 930.042 89.786 929.892 73.875C929.792 63.208 936.971 54.314 948.43 50.912C959.478 47.631 977.168 49.52 987.367 55.071C993.527 58.424 1003 68.285 1007.18 75.698C1008.98 78.874 1010.77 81.341 1011.17 81.179C1015.15 79.564 1051.53 57.69 1051.92 56.673C1052.81 54.357 1043.06 39.553 1034.87 30.788C1021.25 16.206 1003.6 6.17001 984.722 2.27401C973.925 0.0450144 950.937 -0.169985 941.704 1.87101ZM220.204 131.386V257.386H245.696H271.188L271.446 199.636L271.704 141.886L315.704 199.632L359.704 257.379L389.076 257.382C412.43 257.385 418.248 257.13 417.471 256.136C415.36 253.438 367.295 189.184 345.04 159.31L321.517 127.734L367.906 66.81L414.294 5.88601L385.62 5.62002C368.732 5.46402 356.48 5.74202 355.812 6.29702C355.188 6.81402 336.008 31.295 313.191 60.699L271.704 114.159L271.445 59.773L271.187 5.38601H245.695H220.204V131.386ZM442.204 131.386V257.386H467.204H492.204V131.386V5.38601H467.204H442.204V131.386ZM538.204 131.386V257.386H611.704H685.204V233.386V209.386H636.704H588.204V107.386V5.38601H563.204H538.204V131.386ZM712.204 131.386V257.386H785.704H859.204V233.386V209.386H810.704H762.204V107.386V5.38601H737.204H712.204V131.386Z" fill="#0F234D"/>
</svg>
