<svg width="1169" height="258" viewBox="0 0 1169 258" fill="none" xmlns="http://www.w3.org/2000/svg">
<path fill-rule="evenodd" clip-rule="evenodd" d="M78.7027 0.790552C40.2257 6.07567 10.3997 27.9465 2.60866 56.5912C0.193659 65.4702 0.183659 81.9891 2.58766 90.016C8.10666 108.446 22.2137 122.688 45.5397 133.378C55.7867 138.074 68.6187 142.259 87.2027 146.965C112.801 153.448 131.339 160.898 140.389 168.342C142.417 170.009 145.29 173.851 146.774 176.878C153.236 190.055 145.814 202.237 127.649 208.268C110.888 213.834 83.9837 212.355 61.3447 204.626C45.4347 199.193 24.2687 187.237 11.1267 176.258C8.54066 174.098 6.14966 172.331 5.81366 172.331C5.47766 172.331 5.20266 183.746 5.20266 197.699V223.068L13.2157 229.093C32.6857 243.731 53.3937 252.324 78.7027 256.269C89.4127 257.939 116.793 257.93 126.203 256.252C142.444 253.359 159.304 246.472 171.797 237.629C189.174 225.329 198.139 207.619 198.186 185.498C198.245 157.251 184.292 137.04 154.36 122.019C142.79 116.212 132.33 112.726 109.094 106.934C73.9047 98.1607 63.2927 94.2336 56.3807 87.4239C51.5707 82.6855 49.8197 78.7703 49.8757 72.8806C49.9807 61.7027 58.9557 53.3824 76.7457 47.9705C84.9287 45.4801 106.381 45.4672 118.203 47.9446C137.75 52.0414 164.465 62.8281 180.17 72.9644C184.072 75.4827 187.476 77.5441 187.734 77.5441C187.992 77.5441 188.203 66.1746 188.203 52.2789V27.0146L180.819 22.7991C163.974 13.1827 142.576 5.45607 123.703 2.17444C112.622 0.24877 88.1327 -0.504538 78.7027 0.790552ZM1049.81 0.781577C1024.66 4.26774 1005.36 13.2595 990.076 28.615C975.976 42.7772 970.486 57.11 971.525 77.0452C972.497 95.6903 979.708 109.05 995.233 120.969C1008.47 131.137 1024.88 138.166 1052.2 145.382C1077.19 151.981 1087.99 155.583 1098.93 160.968C1118.23 170.475 1124.64 184.079 1115.92 197.086C1105.67 212.388 1066.96 216.194 1033.71 205.17C1016.53 199.475 997.258 188.781 982.37 176.678L976.703 172.073L976.436 197.297C976.129 226.202 975.126 222.96 987.022 231.506C1026.02 259.525 1085.17 266.226 1125.8 247.23C1153.07 234.478 1166.26 217.264 1168.69 191.222C1170.52 171.71 1164.03 153.393 1150.45 139.684C1135.69 124.792 1116.49 115.941 1079.2 106.85C1042.69 97.9472 1029.43 92.3498 1023.45 83.3191C1019.54 77.4213 1019.55 68.655 1023.48 62.7304C1030.13 52.7119 1048.05 45.6468 1066.88 45.6238C1091.11 45.5939 1128.8 58.1427 1152.68 74.1856C1155.43 76.0325 1158.02 77.5441 1158.44 77.5441C1158.86 77.5441 1159.2 66.2066 1159.2 52.3507L1159.2 27.1573L1149.95 21.973C1133.48 12.7427 1113.33 5.60473 1093.98 2.1475C1083.56 0.286685 1058.89 -0.476596 1049.81 0.781577ZM228.203 128.929V255.145H253.203H278.203V223.629V192.114L293.08 175.462C301.263 166.304 308.621 158.261 309.431 157.59C310.672 156.563 317.022 164.136 349.803 205.748L388.703 255.126L418.953 255.135C435.59 255.141 449.203 254.941 449.203 254.693C449.203 254.445 425.308 223.877 396.104 186.766L343.004 119.291L344.948 117.125C377.72 80.6212 446.203 3.57729 446.203 3.21111C446.203 2.93673 432.59 2.7262 415.953 2.74217L385.703 2.7731L332.203 63.805L278.703 124.837L278.445 63.775L278.188 2.71224H253.195H228.203V128.929ZM475.203 128.929V255.145H500.203H525.203V128.929V2.71224H500.203H475.203V128.929ZM567.203 128.929V255.145H654.203H741.203V232.197V209.248H679.203H617.203V105.98V2.71224H592.203H567.203V128.929ZM772.203 128.929V255.145H859.203H946.203V232.197V209.248H884.203H822.203V105.98V2.71224H797.203H772.203V128.929Z" fill="black"/>
</svg>
