<svg width="1060" height="263" viewBox="0 0 1060 263" fill="none" xmlns="http://www.w3.org/2000/svg">
<path fill-rule="evenodd" clip-rule="evenodd" d="M71.7028 2.04201C42.2978 8.31301 18.9438 29.093 12.0898 55.086C9.42884 65.178 9.17984 83.888 11.5808 93.386C15.4358 108.64 24.3368 121.356 37.0298 129.745C50.9228 138.926 61.0698 143.19 91.1368 152.481C111.559 158.792 126.397 165.097 131.997 169.845C142.058 178.375 142.521 193.768 132.997 203.088C125.028 210.886 113.1 214.087 95.7448 213.083C72.2168 211.722 55.0848 201.121 46.0178 182.312C44.1948 178.531 42.2888 175.425 41.7828 175.411C41.2758 175.397 31.4898 180.884 20.0338 187.603C-3.47416 201.393 -1.91116 199.159 3.84784 210.746C8.72184 220.552 12.5988 225.911 20.6378 233.958C35.3538 248.69 52.3588 257.115 75.0278 260.905C88.1548 263.1 117.04 262.581 127.676 259.958C153.636 253.557 173.183 239.382 182.733 220.033C188.191 208.973 190.163 200.181 190.186 186.796C190.206 174.724 187.812 164.164 182.682 153.702C179.954 148.14 177.379 144.868 171.27 139.202C157.944 126.845 147.709 121.81 111.703 109.9C77.0378 98.433 68.5148 94.188 63.7148 85.996C60.5138 80.534 59.4298 72.257 61.2098 66.864C62.9838 61.488 69.3368 55.012 75.4758 52.321C81.9568 49.48 96.7098 48.513 105.102 50.381C117.995 53.249 131.27 63.473 137.606 75.415C139.203 78.424 140.641 81.05 140.803 81.249C141.119 81.641 181.121 58.782 182.58 57.377C183.814 56.188 177.257 44.843 170.211 35.977C156.52 18.748 135.366 6.02902 113.365 1.79702C103.775 -0.0469829 80.8678 0.0870122 71.7028 2.04201ZM941.703 1.87101C932.622 3.87901 926.467 6.15601 918.203 10.567C892.38 24.348 879.166 46.39 879.22 75.594C879.266 100.009 888.824 118.443 907.771 130.661C921.311 139.391 932.085 143.776 966.203 154.442C998.523 164.546 1009.11 172.388 1009.18 186.27C1009.27 203.329 994.848 213.312 970.041 213.369C943.564 213.429 923.705 201.467 913.947 179.582L911.703 174.55L890.703 186.837C879.153 193.595 869.569 199.797 869.406 200.62C868.958 202.87 873.598 212.707 878.79 220.517C891.172 239.142 910.703 252.612 934.703 259.079C944.124 261.617 946.007 261.776 967.203 261.83C987.708 261.881 990.501 261.678 998.703 259.536C1029.58 251.473 1050.98 231.89 1057.89 205.386C1060.26 196.27 1060.19 177.084 1057.76 168.386C1054.61 157.139 1049.43 147.448 1043.31 141.363C1030.01 128.15 1017.58 121.905 979.703 109.425C938.566 95.871 930.041 89.786 929.891 73.875C929.791 63.208 936.97 54.314 948.429 50.912C959.477 47.631 977.167 49.52 987.366 55.071C993.526 58.424 1003 68.285 1007.18 75.698C1008.98 78.874 1010.77 81.341 1011.17 81.179C1015.15 79.564 1051.53 57.69 1051.92 56.673C1052.81 54.357 1043.06 39.553 1034.87 30.788C1021.25 16.206 1003.6 6.17001 984.721 2.27401C973.924 0.0450144 950.936 -0.169985 941.703 1.87101ZM220.203 131.386V257.386H245.695H271.187L271.445 199.636L271.703 141.886L315.703 199.632L359.703 257.379L389.075 257.382C412.429 257.385 418.247 257.13 417.47 256.136C415.359 253.438 367.294 189.184 345.039 159.31L321.516 127.734L367.905 66.81L414.293 5.88601L385.619 5.62002C368.731 5.46402 356.479 5.74202 355.811 6.29702C355.187 6.81402 336.007 31.295 313.19 60.699L271.703 114.159L271.444 59.773L271.186 5.38601H245.694H220.203V131.386ZM442.203 131.386V257.386H467.203H492.203V131.386V5.38601H467.203H442.203V131.386ZM538.203 131.386V257.386H611.703H685.203V233.386V209.386H636.703H588.203V107.386V5.38601H563.203H538.203V131.386ZM712.203 131.386V257.386H785.703H859.203V233.386V209.386H810.703H762.203V107.386V5.38601H737.203H712.203V131.386Z" fill="black"/>
</svg>
