<svg width="2003" height="1446" viewBox="0 0 2003 1446" fill="none" xmlns="http://www.w3.org/2000/svg">
<path fill-rule="evenodd" clip-rule="evenodd" d="M-54.1418 106.885C-77.375 124.48 -121.59 166.389 -141.667 189.839C-250.2 316.613 -288.211 495.342 -240.352 653.885C-197.383 796.235 -99.0564 908.751 44.5026 979.85C99.7568 1007.22 156.17 1021.92 220.447 1025.72C294.499 1030.1 463.15 1028.59 483.534 1023.38C539.192 1009.13 580.836 948.371 575.752 888.838C574.038 868.79 571.315 861.339 556.014 834.835C539.89 806.908 536.492 803.026 518.95 792.479C483.168 770.969 455.283 767.935 319.258 770.748C285.744 771.442 246.186 770.12 231.359 767.81C177.173 759.367 124.047 732.107 84.8131 692.614C62.8359 670.491 28.0575 612.062 19.8185 583.418C-12.7626 470.129 36.6227 353.636 143.362 292.01C197.43 260.794 235.444 253.118 332.51 253.809C373.689 254.105 481.74 254.337 669.77 254.537C731.516 254.601 831.607 254.747 892.192 254.856C952.778 254.968 1043.12 255.052 1092.96 255.044C1448.5 254.978 1440.42 254.637 1487.74 271.773C1520.09 283.487 1564.08 311.408 1588.59 335.771C1611.35 358.4 1643.18 407.965 1652.75 435.676C1657.03 448.075 1661.66 468.929 1663.04 482.015C1664.82 498.874 1667.29 506.729 1671.52 508.957C1674.81 510.689 1697.78 512.017 1722.56 511.911C1747.35 511.808 1804.34 511.842 1849.22 511.984C1917.11 512.202 1931.1 511.109 1932.54 505.464C1935.14 495.227 1921.73 402.441 1913.08 370.854C1883.24 261.857 1806.62 158.775 1705.39 91.4075C1649.35 54.1138 1607.04 34.5711 1542.06 15.972C1474.85 -3.26004 1472.78 -3.36904 1161.69 -3.36658C1105.92 -3.36577 1010.72 -3.44492 950.141 -3.54092C456.876 -4.33257 280.192 -3.75489 235.145 -1.21342C147.849 3.7166 84.8969 23.3141 5.13532 70.3915C-22.5128 86.708 -49.1884 103.132 -54.1418 106.885ZM178.905 428.316C151.827 458.79 137.72 496.08 140.025 531.105C141.047 546.681 144.403 555.415 159.206 581.054C176.006 610.154 178.681 613.127 201.365 627.916C224.519 643.012 227.852 643.858 277.221 647.189C305.621 649.102 355.026 649.521 387.007 648.115C481.35 643.971 531.567 655.188 588.461 693.116C625.263 717.649 648.866 743.08 671.905 783.029C693.609 820.659 702.67 855.271 703.478 903.61C704.101 941.126 686.398 1007.57 668.076 1036.46C637.948 1083.96 576.587 1132.38 525.788 1148.73C475.412 1164.94 465.309 1165.35 139.619 1164.69C71.6018 1164.55 7.0058 1166.32 -3.93328 1168.62C-49.4406 1178.2 -90.0815 1218.34 -100.3 1263.79C-108.553 1300.51 -104.367 1327.9 -85.5057 1360.57C-71.9529 1384.04 -66.7774 1389.99 -50.2166 1401.09C-25.6083 1417.59 23.0683 1433 71.9289 1439.76C104.872 1444.32 295.863 1445.94 647 1444.63C693.183 1444.45 756.259 1444.39 787.171 1444.49C818.083 1444.59 894.804 1444.62 957.66 1444.55C1020.52 1444.49 1107.88 1444.45 1151.8 1444.47C1195.72 1444.49 1272.61 1444.5 1322.67 1444.48C1428.75 1444.44 1474.35 1440.04 1530.76 1424.43C1658.58 1389.05 1761.24 1315.59 1833.95 1207.49C1874.04 1147.89 1894.64 1099.62 1909.62 1030.23C1916.12 1000.12 1922.7 933.548 1919.69 928.328C1918.95 927.046 1886.8 926.012 1848.24 926.03C1809.68 926.045 1752.1 925.897 1720.29 925.691C1688.47 925.49 1661.02 926.143 1659.29 927.142C1657.56 928.142 1651.86 947.146 1646.63 969.375C1631.3 1034.45 1608.99 1073.31 1563.9 1113.44C1520.54 1152.03 1467.82 1175.23 1411.51 1180.5C1383.62 1183.12 1363.38 1183.35 1169.35 1183.36C1118.32 1183.37 1036.32 1183.39 987.113 1183.42C937.913 1183.45 897.146 1182.64 896.528 1181.62C895.91 1180.59 904.098 1164.44 914.723 1145.73C963.32 1060.15 986.393 937.423 972.671 837.514C970.129 818.985 963.691 787.467 958.369 767.47C949.346 733.575 945.916 726.281 907.75 659.81C852.993 564.446 827.816 536.571 746.347 481.132C669.785 429.03 581.526 397.245 494.945 390.594C461.571 388.031 293.757 388.852 259.849 391.741C229.27 394.348 195.545 409.586 178.905 428.316ZM1573.11 661.51C1561.71 677.447 1558.92 694.21 1560.35 738.293C1561.66 778.41 1566.46 792.28 1583.72 805.862C1601.91 820.175 1617.53 822.491 1694.6 822.297C1731.27 822.204 1800.8 822.21 1849.11 822.314C1953.15 822.533 1959.21 821.649 1978.76 803.456C1997.88 785.662 2001.85 773.029 2002.47 728.028C2003.05 686.918 1997.71 668.102 1981.35 653.509C1959.36 633.884 1962.15 634.1 1734.96 634.526C1594.22 634.793 1591.95 635.17 1573.11 661.51Z" fill="#0E2044" fill-opacity="0.45"/>
</svg>
